<mxfile host="app.diagrams.net" agent="Mozilla/5.0 (Macintosh; Intel Mac OS X 10_15_7) AppleWebKit/537.36 (KHTML, like Gecko) Chrome/128.0.0.0 Safari/537.36" version="24.7.7">
  <diagram name="第 1 页" id="fWNnaJhq76tSm6XB1aWO">
    <mxGraphModel dx="1246" dy="616" grid="1" gridSize="10" guides="1" tooltips="1" connect="1" arrows="1" fold="1" page="1" pageScale="1" pageWidth="1169" pageHeight="1654" math="0" shadow="0">
      <root>
        <mxCell id="0" />
        <mxCell id="1" parent="0" />
        <mxCell id="nmUOTvEDm5lJNUOss9-g-1" value="" style="rounded=0;whiteSpace=wrap;html=1;" vertex="1" parent="1">
          <mxGeometry x="330" y="340" width="300" height="120" as="geometry" />
        </mxCell>
        <mxCell id="nmUOTvEDm5lJNUOss9-g-5" value="&lt;a href=&quot;https://sqbu-github.cisco.com/WebExSquared/dash-tool&quot;&gt;DashTool&lt;/a&gt;" style="text;html=1;align=center;verticalAlign=middle;whiteSpace=wrap;rounded=0;" vertex="1" parent="1">
          <mxGeometry x="450" y="430" width="60" height="30" as="geometry" />
        </mxCell>
        <mxCell id="nmUOTvEDm5lJNUOss9-g-7" value="" style="rounded=1;whiteSpace=wrap;html=1;" vertex="1" parent="1">
          <mxGeometry x="560" y="440" width="70" height="20" as="geometry" />
        </mxCell>
        <mxCell id="nmUOTvEDm5lJNUOss9-g-27" value="" style="edgeStyle=none;shape=connector;rounded=0;orthogonalLoop=1;jettySize=auto;html=1;strokeColor=default;align=center;verticalAlign=middle;fontFamily=Helvetica;fontSize=11;fontColor=default;labelBackgroundColor=default;endArrow=none;" edge="1" parent="1" source="nmUOTvEDm5lJNUOss9-g-8">
          <mxGeometry relative="1" as="geometry">
            <mxPoint x="674.9999999999998" y="450" as="targetPoint" />
          </mxGeometry>
        </mxCell>
        <mxCell id="nmUOTvEDm5lJNUOss9-g-8" value="&lt;font style=&quot;font-size: 9px;&quot;&gt;Config.yaml&lt;/font&gt;" style="text;html=1;align=center;verticalAlign=middle;whiteSpace=wrap;rounded=0;" vertex="1" parent="1">
          <mxGeometry x="565" y="435" width="60" height="30" as="geometry" />
        </mxCell>
        <mxCell id="nmUOTvEDm5lJNUOss9-g-14" value="" style="endArrow=none;dashed=1;html=1;rounded=0;strokeColor=default;align=center;verticalAlign=middle;fontFamily=Helvetica;fontSize=11;fontColor=default;labelBackgroundColor=default;entryX=1;entryY=0.75;entryDx=0;entryDy=0;exitX=0;exitY=0.75;exitDx=0;exitDy=0;" edge="1" parent="1" source="nmUOTvEDm5lJNUOss9-g-1" target="nmUOTvEDm5lJNUOss9-g-1">
          <mxGeometry width="50" height="50" relative="1" as="geometry">
            <mxPoint x="330" y="440" as="sourcePoint" />
            <mxPoint x="380" y="390" as="targetPoint" />
          </mxGeometry>
        </mxCell>
        <mxCell id="nmUOTvEDm5lJNUOss9-g-15" value="Dashboard" style="rounded=1;whiteSpace=wrap;html=1;fontFamily=Helvetica;fontSize=11;fontColor=default;labelBackgroundColor=default;" vertex="1" parent="1">
          <mxGeometry x="340" y="350" width="90" height="70" as="geometry" />
        </mxCell>
        <mxCell id="nmUOTvEDm5lJNUOss9-g-16" value="Alert + Contact_points" style="rounded=1;whiteSpace=wrap;html=1;fontFamily=Helvetica;fontSize=11;fontColor=default;labelBackgroundColor=default;" vertex="1" parent="1">
          <mxGeometry x="450" y="350" width="165" height="70" as="geometry" />
        </mxCell>
        <mxCell id="nmUOTvEDm5lJNUOss9-g-28" value="DashTool - Config.yaml" style="swimlane;fontStyle=0;childLayout=stackLayout;horizontal=1;startSize=26;fillColor=none;horizontalStack=0;resizeParent=1;resizeParentMax=0;resizeLast=0;collapsible=1;marginBottom=0;html=1;fontFamily=Helvetica;fontSize=11;fontColor=default;labelBackgroundColor=default;" vertex="1" parent="1">
          <mxGeometry x="680" y="435" width="300" height="350" as="geometry">
            <mxRectangle x="680" y="435" width="180" height="35" as="alternateBounds" />
          </mxGeometry>
        </mxCell>
        <mxCell id="nmUOTvEDm5lJNUOss9-g-29" value="&lt;div&gt;datacenters:&lt;/div&gt;&lt;div&gt;&lt;b&gt;&amp;nbsp; prd:&lt;/b&gt;&lt;/div&gt;&lt;div&gt;&amp;nbsp; &amp;nbsp; contact_point: grafana-default-email&lt;/div&gt;&lt;div&gt;&amp;nbsp; &amp;nbsp; lp_contact_point: webapps-devops-lp&lt;/div&gt;&lt;div&gt;&amp;nbsp; &amp;nbsp; folder-uid: f2daa67f-5426-445f-b8ac-b91e42937d05&lt;/div&gt;&lt;div&gt;&lt;b&gt;&amp;nbsp; fedramp:&lt;/b&gt;&lt;/div&gt;&lt;div&gt;&amp;nbsp; &amp;nbsp; contact_point: grafana-default-email&lt;/div&gt;&lt;div&gt;&amp;nbsp; &amp;nbsp; lp_contact_point: webapps-devops-lp&lt;/div&gt;&lt;div&gt;&amp;nbsp; &amp;nbsp; folder-uid: f376a9b8-bdb8-4032-aa9d-12822adcbdd2&lt;/div&gt;&lt;div&gt;&lt;b&gt;&amp;nbsp; dmz:&lt;/b&gt;&lt;/div&gt;&lt;div&gt;&amp;nbsp; &amp;nbsp; folder-uid: bef0dc30-c846-4f6a-9b8e-c94ae4e7ad26&lt;/div&gt;&lt;div&gt;alert-labels:&lt;/div&gt;&lt;div&gt;&amp;nbsp; service: cfgascode&lt;/div&gt;&lt;div&gt;&amp;nbsp; team: avatar&lt;/div&gt;&lt;div&gt;&amp;nbsp; group: avatar&lt;/div&gt;&lt;div&gt;common-health-and-alerting:&lt;/div&gt;&lt;div&gt;&amp;nbsp; application-group: general&lt;/div&gt;&lt;div&gt;&amp;nbsp; high-priority: true&lt;/div&gt;&lt;div&gt;alert-overrides:&lt;/div&gt;&lt;div&gt;&amp;nbsp; common-health-and-alerting:&lt;/div&gt;&lt;div&gt;&amp;nbsp; &amp;nbsp; warn-logs:&lt;/div&gt;&lt;div&gt;&amp;nbsp; &amp;nbsp; &amp;nbsp; threshold: 36000&lt;/div&gt;" style="text;strokeColor=none;fillColor=none;align=left;verticalAlign=top;spacingLeft=4;spacingRight=4;overflow=hidden;rotatable=0;points=[[0,0.5],[1,0.5]];portConstraint=eastwest;whiteSpace=wrap;html=1;fontFamily=Helvetica;fontSize=11;fontColor=default;labelBackgroundColor=default;" vertex="1" parent="nmUOTvEDm5lJNUOss9-g-28">
          <mxGeometry y="26" width="300" height="324" as="geometry" />
        </mxCell>
      </root>
    </mxGraphModel>
  </diagram>
</mxfile>
